PathFileType	4	(X/Y/Z)	C:\Users\Basilio\Documents\Thesis Gigler\squatting_fais\c3dfiles\044\SLS_back_pre4\markers_experimental.trc
DataRate	CameraRate	NumFrames	NumMarkers	Units	OrigDataRate	OrigDataStartFrame	OrigNumFrames
200.000000	200.000000	4	63	mm	200.000000	512	1367
Frame#	Time	FHD			LBHD			RBHD			C7			T10			LSHO			LUUPA			LMUPA			LDUPA			LLEP			LMEP			LUL			LRFIN			RSHO			RUPA1			RMUPA			RDUPA			RLEP			RMEP			RUFIN			LASI			RASI			USACR			LSACR			RSACR			LTHI1			LTHI2			LTHI3			LTHI4			LLFC			LMFC			LTIB1			LTIB2			LTIB3			LTIB4			LLMAL			LMMAL			LHEE			LMT1			LMT2			LMT5			RTHI			RTHI2			RTHI3			RTHI4			RLFC			RMFC			RTIB1			RTIB2			RTIB3			RTIB4			RLMAL			RMMAL			RHEE			RMT1			RMT2			RMT5			RRAD			RUL			CLAV			LRAD			*61			*62			
		X1	Y1	Z1	X2	Y2	Z2	X3	Y3	Z3	X4	Y4	Z4	X5	Y5	Z5	X6	Y6	Z6	X7	Y7	Z7	X8	Y8	Z8	X9	Y9	Z9	X10	Y10	Z10	X11	Y11	Z11	X12	Y12	Z12	X13	Y13	Z13	X14	Y14	Z14	X15	Y15	Z15	X16	Y16	Z16	X17	Y17	Z17	X18	Y18	Z18	X19	Y19	Z19	X20	Y20	Z20	X21	Y21	Z21	X22	Y22	Z22	X23	Y23	Z23	X24	Y24	Z24	X25	Y25	Z25	X26	Y26	Z26	X27	Y27	Z27	X28	Y28	Z28	X29	Y29	Z29	X30	Y30	Z30	X31	Y31	Z31	X32	Y32	Z32	X33	Y33	Z33	X34	Y34	Z34	X35	Y35	Z35	X36	Y36	Z36	X37	Y37	Z37	X38	Y38	Z38	X39	Y39	Z39	X40	Y40	Z40	X41	Y41	Z41	X42	Y42	Z42	X43	Y43	Z43	X44	Y44	Z44	X45	Y45	Z45	X46	Y46	Z46	X47	Y47	Z47	X48	Y48	Z48	X49	Y49	Z49	X50	Y50	Z50	X51	Y51	Z51	X52	Y52	Z52	X53	Y53	Z53	X54	Y54	Z54	X55	Y55	Z55	X56	Y56	Z56	X57	Y57	Z57	X58	Y58	Z58	X59	Y59	Z59	X60	Y60	Z60	X61	Y61	Z61	X62	Y62	Z62	X63	Y63	Z63	

513	2.56	-171.7282867431641	1747.191040039063	-1036.418090820313	-304.5280456542969	1710.237548828125	-1115.04833984375	-349.6473999023438	1698.4921875	-955.857360839844	-364.7174377441407	1524.057739257813	-1036.272827148438	-400.0900268554689	1229.412353515625	-1011.072509765625	-275.3603515625001	1534.733764648438	-1179.172973632813	-115.9327087402344	1519.423095703125	-1283.78662109375	-87.07415008544923	1531.668212890625	-1244.726440429688	-47.66448593139649	1517.550415039063	-1287.82861328125	11.04959201812744	1519.183471679688	-1279.8671875	7.601493358612062	1443.353637695313	-1268.659057617188	266.6224060058594	1547.386840820313	-1159.25927734375	271.3747558593751	1569.490600585938	-1059.600463867188	-282.5109558105469	1538.224487304688	-881.155700683594	-129.6921539306641	1531.0673828125	-779.0357666015627	-100.7446899414063	1543.648071289063	-819.313903808594	-60.31639862060548	1534.378173828125	-775.8963623046877	0.7525487542152407	1539.81591796875	-785.6687011718752	2.806093931198121	1458.428955078125	-790.7605590820315	255.3759765625001	1536.449096679688	-1019.538452148438	-262.2831420898438	1008.096740722656	-1091.7265625	-267.4538269042969	1002.066345214844	-877.6844482421877	-421.6539611816407	1087.530029296875	-987.589782714844	-431.5483703613282	1054.9892578125	-1012.886474609375	-432.0161437988282	1061.727416992188	-956.006530761719	-306.8106079101563	777.0935668945315	-1163.052368164063	-251.5947570800782	713.2164916992189	-1159.61669921875	-207.4072875976563	729.4520874023439	-1150.846313476563	-260.6888427734376	655.6823120117189	-1142.555541992188	-204.5652160644532	511.6920166015626	-1118.935913085938	-202.2766723632813	516.7092285156251	-997.9068603515627	-214.5420227050782	343.6122436523438	-1024.16650390625	-247.3148345947266	295.8500061035157	-1091.280639648438	-219.2891387939454	292.0921020507813	-1052.181274414063	-255.4851684570313	224.5023345947266	-1015.354553222656	-331.1834106445313	121.4636383056641	-1055.310546875	-312.9947204589844	132.2741088867188	-970.0698242187502	-397.5879516601564	102.0799179077149	-1006.309387207031	-192.6761932373047	57.64876937866212	-979.644226074219	-189.5211486816407	60.58117675781251	-1025.750732421875	-226.1437683105469	48.63226699829103	-1074.072143554688	-343.4558105468751	738.6820678710939	-793.4429321289065	-294.0617065429688	691.2488403320314	-792.714050292969	-263.4146728515626	696.7094726562501	-801.3035278320315	-309.4830627441407	608.0953979492189	-802.4046630859377	-321.5799865722657	523.1793212890626	-813.2100830078127	-329.4044189453126	512.4583129882814	-928.835632324219	-408.182342529297	424.9341125488282	-833.749206542969	-502.9659729003907	469.4821166992189	-797.6254882812502	-492.4762268066407	425.444305419922	-807.9495239257815	-534.3088378906251	394.497283935547	-833.4362792968752	-704.0859375000001	396.5619506835939	-825.1120605468752	-682.0219116210939	375.6083374023438	-907.7141113281252	-754.7901000976564	432.3811950683595	-882.777282714844	-686.6688232421876	231.0328826904297	-884.9526367187502	-690.9398193359376	226.1990051269532	-847.4387817382815	-731.3653564453126	255.0644073486329	-803.089050292969	nan	nan	nan	256.1865234375001	1560.819702148438	-906.0757446289065	nan	nan	nan	nan	nan	nan	nan	nan	nan	nan	nan	nan	
514	2.565	-171.7427978515625	1746.771850585938	-1036.82275390625	-303.8832702636719	1709.6240234375	-1114.978393554688	-349.3630065917969	1697.735961914063	-955.781188964844	-364.7075195312501	1523.956420898438	-1036.525634765625	-400.1461791992189	1228.43798828125	-1011.009643554688	-274.7834167480469	1534.180053710938	-1179.12109375	-115.5944442749024	1518.643188476563	-1283.935302734375	-86.73365783691408	1530.510375976563	-1244.826171875	-47.55292510986329	1516.803466796875	-1287.840698242188	10.81621170043945	1518.65966796875	-1279.969116210938	7.935721874237062	1442.193969726563	-1268.79541015625	266.9305419921876	1546.310791015625	-1159.312133789063	271.7706909179688	1568.60009765625	-1059.843994140625	-282.1658325195313	1537.432495117188	-881.1509399414065	-129.1582641601563	1530.1591796875	-779.1081542968752	-100.4947814941407	1542.854614257813	-819.3677978515627	-59.8861656188965	1533.494018554688	-776.0518188476565	1.077157258987427	1539.011474609375	-785.759216308594	3.051594495773316	1457.30712890625	-791.0554199218752	255.7248687744141	1535.39501953125	-1019.709655761719	-262.4767150878907	1007.330383300781	-1091.6025390625	-268.0140075683594	1001.172729492188	-877.4634399414065	-421.8677673339845	1086.8642578125	-987.5742797851565	-434.0013427734376	1055.180297851563	-1012.643615722656	-433.2271118164064	1061.701049804688	-955.8374633789065	-306.5882263183594	776.6785888671877	-1163.189819335938	-251.1369171142579	712.7869262695314	-1159.79296875	-207.0172119140626	729.0424804687501	-1150.993774414063	-260.0672302246094	655.0575561523439	-1142.906005859375	-203.6904907226563	511.3561096191407	-1119.094116210938	-201.4597167968751	516.4552001953126	-998.1287231445315	-213.8995971679688	343.3038330078126	-1024.229370117188	-246.9287109375001	295.6090393066407	-1091.34716796875	-218.9488830566407	291.9155883789063	-1052.30615234375	-254.9870605468751	224.1556091308594	-1015.508911132813	-331.1448059082032	121.4311294555664	-1055.349609375	-312.9107055664063	132.283920288086	-970.084167480469	-397.7996826171876	102.4704666137696	-1006.134033203125	-192.6776580810547	57.64427566528322	-979.6936035156252	-189.748519897461	60.95686721801759	-1025.568237304688	-226.180160522461	48.69246292114259	-1074.050659179688	-344.1990661621094	737.6403808593751	-793.3635253906252	-294.7620849609376	690.2904663085939	-792.8794555664065	-264.2640380859376	695.7009277343751	-801.0701293945315	-310.2202758789063	607.4006347656251	-802.831237792969	-322.0706176757813	522.1719360351564	-813.1426391601565	-330.0598449707032	511.7191162109376	-929.0139770507815	-408.8512268066407	424.2166137695314	-833.571472167969	-503.8561401367189	468.8667907714845	-798.1171875000002	-493.1894531250001	424.9797363281251	-808.3781738281252	-535.2547607421876	393.9506225585939	-833.938171386719	-704.7341308593751	396.1836853027345	-825.924255371094	-682.6341552734376	375.1348266601563	-908.1614379882815	-755.3057861328126	431.849578857422	-883.3834228515627	-687.6923217773439	231.9264526367188	-885.5562133789065	-691.7810668945314	225.6002197265626	-848.400085449219	-732.3198242187501	254.5343627929688	-803.8687133789065	nan	nan	nan	256.2237548828126	1559.946533203125	-906.2526855468752	nan	nan	nan	nan	nan	nan	nan	nan	nan	nan	nan	nan	
515	2.57	-171.1944274902344	1745.6083984375	-1036.874633789063	-302.8536071777344	1709.206420898438	-1114.935791015625	-349.0540161132813	1696.972900390625	-955.7530517578127	-364.4051513671876	1523.098999023438	-1036.535034179688	-400.2097167968751	1227.598876953125	-1011.020324707031	-274.4948120117188	1533.246826171875	-1179.108764648438	-115.3253479003907	1517.708740234375	-1283.968139648438	-86.42658996582033	1529.694580078125	-1244.900146484375	-47.25023651123048	1515.64013671875	-1287.945190429688	11.70777416229248	1517.329223632813	-1279.992797851563	7.941849231719972	1441.057373046875	-1268.763427734375	267.4880371093751	1545.214599609375	-1159.49267578125	272.0654907226563	1567.295532226563	-1059.868408203125	-281.6868286132813	1536.356079101563	-881.1660766601565	-128.8957977294922	1529.327392578125	-779.0733032226565	-100.0701675415039	1541.908203125	-819.3593750000002	-59.34774398803712	1532.189819335938	-775.8787841796877	1.358355402946472	1537.795776367188	-785.8209228515627	3.332624673843385	1456.251342773438	-790.743103027344	256.0843200683594	1534.241333007813	-1019.765686035156	-262.6302490234376	1006.443542480469	-1091.578857421875	-268.4477844238282	1000.158935546875	-877.3250732421877	-421.9037170410157	1086.097534179688	-987.632995605469	-432.0367736816407	1053.620239257813	-1013.075805664063	-433.3873596191407	1060.992309570313	-956.1315917968752	-306.2486572265626	776.1790771484377	-1163.575439453125	-250.7298278808594	712.3854370117189	-1159.933837890625	-206.8014678955079	728.6450805664064	-1151.054077148438	-259.5838928222657	654.5658569335939	-1143.150146484375	-202.7622528076172	510.939422607422	-1119.2939453125	-200.7108001708985	516.2037353515626	-998.2710571289065	-213.2625579833985	343.0193786621094	-1024.674682617188	-246.5416870117188	295.4147338867188	-1091.442504882813	-218.4979858398438	291.5101318359376	-1052.379272460938	-254.6018676757813	223.8985443115235	-1015.640441894531	-331.1274108886719	121.4435577392578	-1055.423095703125	-312.8793029785157	132.2752838134766	-970.125671386719	-397.6090393066407	102.0818786621094	-1006.401794433594	-192.6431274414063	57.6483726501465	-979.6926879882815	-189.771957397461	60.98200607299806	-1025.6953125	-226.080062866211	48.53770065307619	-1074.110595703125	-344.6505432128907	736.5988159179689	-793.0601196289065	-295.3644104003907	689.4209594726564	-792.938659667969	-264.8195495605469	694.7718505859376	-801.1877441406252	-310.7709960937501	606.3177490234376	-802.404724121094	-322.7902221679688	521.4717407226564	-813.2991333007815	-330.7497558593751	511.0525207519532	-929.2454833984377	-409.7500610351564	423.4760742187501	-833.5797119140627	-504.4358520507814	468.0576171875001	-798.4421997070315	-493.9018859863282	424.2618713378907	-808.8759765625002	-535.9965209960939	393.1683044433595	-834.1403808593752	-705.7882690429689	395.7060852050782	-826.5393676757815	-683.2043457031251	374.5256958007813	-908.8701171875002	-755.9836425781251	431.3803100585939	-884.0330200195315	-688.8652343750001	230.1067657470704	-885.9041748046877	-692.9081420898439	224.7658691406251	-848.9252929687502	-733.4173583984376	254.2966461181641	-804.6557617187502	nan	nan	nan	256.5426940917969	1559.11328125	-906.6442871093752	nan	nan	nan	nan	nan	nan	nan	nan	nan	nan	nan	nan	
516	2.575	-170.9746704101563	1744.7294921875	-1036.634155273438	-302.3431396484376	1708.395751953125	-1114.96484375	-348.4571838378907	1696.010986328125	-955.8560791015627	-364.0724487304688	1521.859741210938	-1036.28369140625	-400.2072753906251	1227.029663085938	-1010.962097167969	-273.9937744140626	1532.150268554688	-1179.212036132813	-114.901481628418	1516.926635742188	-1284.04052734375	-86.11268615722658	1528.87939453125	-1244.989990234375	-46.92364120483399	1514.816162109375	-1288.002319335938	11.93481636047363	1516.386596679688	-1280.032958984375	8.36032295227051	1440.229370117188	-1268.940063476563	267.8764953613282	1544.369750976563	-1159.772705078125	272.3875732421876	1566.06640625	-1059.66357421875	-281.2231750488282	1535.555053710938	-881.1516723632815	-128.4442291259766	1528.12939453125	-779.1062011718752	-99.72919464111331	1540.873046875	-819.412048339844	-59.10556411743165	1531.445678710938	-776.1207275390627	1.908002734184266	1536.85107421875	-785.9058227539065	3.720406770706178	1455.084838867188	-790.5183105468752	256.3713684082032	1533.130615234375	-1020.002197265625	-262.7687988281251	1005.629028320313	-1091.532592773438	-268.8142089843751	999.4313964843752	-877.1861572265627	-422.1312255859376	1085.262817382813	-987.6391601562502	-433.105926513672	1053.4521484375	-1012.926635742188	-433.534393310547	1060.241943359375	-956.1293945312502	-304.4448242187501	776.999206542969	-1164.73974609375	-250.3573760986329	712.0176391601564	-1160.1396484375	-205.4232788085938	728.9288330078126	-1150.756713867188	-259.0286865234376	654.0817260742189	-1143.328369140625	-201.9249267578126	510.5132751464845	-1119.462890625	-199.8464813232422	516.0081176757814	-998.448181152344	-212.7660675048829	342.5008239746094	-1024.777221679688	-246.0993652343751	295.1990051269532	-1091.573120117188	-218.0072479248047	291.4152221679688	-1052.697631835938	-254.4242095947266	223.8277130126954	-1015.715515136719	-331.0177001953126	121.4427947998047	-1055.416137695313	-312.8920288085938	132.417221069336	-970.2395629882815	-397.7818603515626	102.4583892822266	-1006.185852050781	-192.6698760986329	57.65427017211915	-979.7175292968752	-189.5058288574219	60.46823501586915	-1025.860717773438	-226.1038818359376	48.52569580078126	-1074.145874023438	-345.2236633300782	736.0613403320314	-793.4539794921877	-295.9185791015626	688.6657104492189	-792.7869873046877	-265.3766784667969	694.0247802734376	-801.1770019531252	-311.5534973144532	605.7169799804689	-802.8239746093752	-323.4047241210938	520.7476196289064	-813.8924560546877	-331.2584533691407	510.1967163085939	-929.3912353515627	-410.403533935547	422.8438110351564	-834.3345947265627	-505.2827148437501	467.4260253906251	-798.8173828125002	-494.6295166015626	423.4565429687501	-809.1158447265627	-536.5208129882814	392.4985961914064	-834.6776123046877	-706.2589721679689	395.0148010253907	-826.9695434570315	-683.9574584960939	374.0384826660157	-909.4107055664065	-756.5850830078126	431.057342529297	-884.885192871094	-689.6178588867189	229.7152099609376	-886.6353149414065	-693.7476806640626	224.311019897461	-849.5021972656252	-734.6445922851564	253.8386840820313	-805.4659423828127	nan	nan	nan	257.0036315917969	1557.649658203125	-906.487731933594	nan	nan	nan	nan	nan	nan	nan	nan	nan	nan	nan	nan	
